<svg id="visual" viewBox="0 0 900 600" width="900" height="600" xmlns="http://www.w3.org/2000/svg" xmlns:xlink="http://www.w3.org/1999/xlink" version="1.1"><path d="M0 211L82 211L82 121L164 121L164 115L245 115L245 115L327 115L327 175L409 175L409 217L491 217L491 121L573 121L573 199L655 199L655 181L736 181L736 157L818 157L818 217L900 217L900 211L900 0L900 0L818 0L818 0L736 0L736 0L655 0L655 0L573 0L573 0L491 0L491 0L409 0L409 0L327 0L327 0L245 0L245 0L164 0L164 0L82 0L82 0L0 0Z" fill="#c1d6ff"></path><path d="M0 307L82 307L82 205L164 205L164 181L245 181L245 169L327 169L327 217L409 217L409 295L491 295L491 187L573 187L573 247L655 247L655 235L736 235L736 235L818 235L818 295L900 295L900 331L900 209L900 215L818 215L818 155L736 155L736 179L655 179L655 197L573 197L573 119L491 119L491 215L409 215L409 173L327 173L327 113L245 113L245 113L164 113L164 119L82 119L82 209L0 209Z" fill="#9db8ef"></path><path d="M0 373L82 373L82 421L164 421L164 415L245 415L245 343L327 343L327 373L409 373L409 379L491 379L491 427L573 427L573 415L655 415L655 469L736 469L736 451L818 451L818 433L900 433L900 493L900 329L900 293L818 293L818 233L736 233L736 233L655 233L655 245L573 245L573 185L491 185L491 293L409 293L409 215L327 215L327 167L245 167L245 179L164 179L164 203L82 203L82 305L0 305Z" fill="#7a9bde"></path><path d="M0 451L82 451L82 499L164 499L164 487L245 487L245 445L327 445L327 475L409 475L409 445L491 445L491 505L573 505L573 517L655 517L655 511L736 511L736 511L818 511L818 499L900 499L900 541L900 491L900 431L818 431L818 449L736 449L736 467L655 467L655 413L573 413L573 425L491 425L491 377L409 377L409 371L327 371L327 341L245 341L245 413L164 413L164 419L82 419L82 371L0 371Z" fill="#557ecd"></path><path d="M0 601L82 601L82 601L164 601L164 601L245 601L245 601L327 601L327 601L409 601L409 601L491 601L491 601L573 601L573 601L655 601L655 601L736 601L736 601L818 601L818 601L900 601L900 601L900 539L900 497L818 497L818 509L736 509L736 509L655 509L655 515L573 515L573 503L491 503L491 443L409 443L409 473L327 473L327 443L245 443L245 485L164 485L164 497L82 497L82 449L0 449Z" fill="#2962bb"></path></svg>