<svg id="svg" version="1.1" xmlns="http://www.w3.org/2000/svg" xmlns:xlink="http://www.w3.org/1999/xlink" width="400" height="154.85869144405729" viewBox="0, 0, 400,154.85869144405729"><g id="svgg"><path id="path0" d="M68.042 46.563 C 67.013 47.789,65.920 49.045,65.615 49.354 C 65.310 49.664,64.465 50.623,63.738 51.486 C 63.011 52.350,62.079 53.442,61.667 53.914 C 61.254 54.386,60.392 55.397,59.750 56.161 C 59.108 56.925,58.096 58.121,57.500 58.820 C 56.904 59.519,56.100 60.472,55.713 60.938 L 55.009 61.785 57.592 64.268 C 59.013 65.633,60.239 66.772,60.315 66.798 C 60.392 66.825,62.582 64.367,65.180 61.338 C 67.779 58.308,69.959 55.849,70.024 55.873 C 70.129 55.912,76.016 62.723,78.263 65.406 C 79.687 67.107,79.405 67.142,81.618 64.982 C 82.687 63.938,83.892 62.731,84.296 62.301 L 85.029 61.518 81.556 57.477 C 79.646 55.254,77.342 52.569,76.436 51.510 C 75.530 50.450,74.585 49.396,74.335 49.167 C 74.086 48.938,73.036 47.756,72.002 46.542 C 70.968 45.327,70.075 44.333,70.018 44.333 C 69.961 44.333,69.071 45.336,68.042 46.563 M87.307 65.454 C 87.001 65.776,86.225 66.492,85.583 67.047 C 84.942 67.601,81.202 71.211,77.273 75.069 C 73.343 78.927,70.072 82.083,70.004 82.083 C 69.868 82.083,65.902 78.261,60.000 72.441 C 57.938 70.407,55.340 67.903,54.227 66.876 L 52.205 65.008 51.595 65.791 C 51.260 66.221,50.670 66.907,50.284 67.314 C 49.084 68.581,47.668 70.244,47.667 70.386 C 47.667 70.559,60.461 83.194,63.622 86.143 L 65.995 88.356 66.039 93.136 L 66.083 97.917 69.958 97.961 L 73.833 98.006 73.833 93.298 L 73.833 88.590 77.292 85.263 C 79.194 83.433,83.408 79.294,86.656 76.064 L 92.561 70.193 91.970 69.471 C 91.645 69.075,91.083 68.450,90.722 68.083 C 90.361 67.717,89.570 66.844,88.965 66.143 L 87.864 64.870 87.307 65.454 M43.666 75.846 C 42.704 76.952,41.617 78.216,41.250 78.655 C 40.883 79.094,39.687 80.495,38.592 81.768 C 37.497 83.042,36.185 84.571,35.676 85.166 C 35.167 85.762,34.629 86.362,34.482 86.500 C 34.334 86.637,33.564 87.511,32.771 88.441 L 31.328 90.132 31.372 94.963 L 31.417 99.794 34.500 96.283 C 36.196 94.351,38.770 91.416,40.221 89.760 C 41.672 88.105,43.064 86.563,43.315 86.333 C 43.707 85.974,49.388 79.546,49.952 78.824 C 50.122 78.606,49.785 78.198,47.784 76.201 L 45.415 73.836 43.666 75.846 M91.377 76.294 L 89.004 78.583 92.293 82.283 C 94.103 84.318,96.521 87.025,97.667 88.300 C 98.813 89.574,101.287 92.371,103.167 94.514 C 105.046 96.658,106.900 98.751,107.288 99.164 L 107.992 99.917 107.996 95.082 L 108.000 90.248 107.073 89.165 C 106.563 88.570,105.480 87.333,104.665 86.417 C 103.850 85.500,101.511 82.797,99.467 80.409 C 94.486 74.592,93.967 74.000,93.850 74.002 C 93.795 74.004,92.682 75.035,91.377 76.294 " stroke="none" fill="#fafafc" fill-rule="evenodd"></path><path id="path1" d="M343.833 72.997 C 343.833 87.008,343.879 98.591,343.934 98.736 C 344.023 98.967,344.570 99.000,348.351 99.000 L 352.667 99.000 352.667 90.917 L 352.667 82.833 354.198 82.833 C 355.917 82.833,356.646 83.149,357.023 84.056 C 357.131 84.316,357.304 84.616,357.409 84.723 C 357.514 84.829,357.839 85.267,358.132 85.696 C 358.426 86.124,358.760 86.574,358.874 86.696 C 358.989 86.817,359.190 87.123,359.320 87.375 C 359.450 87.627,359.619 87.833,359.695 87.833 C 359.771 87.833,359.833 87.911,359.833 88.007 C 359.833 88.103,359.927 88.293,360.042 88.429 C 360.156 88.566,360.325 88.769,360.417 88.881 C 360.509 88.992,360.732 89.365,360.913 89.708 C 361.094 90.052,361.300 90.333,361.371 90.333 C 361.442 90.333,361.500 90.417,361.500 90.520 C 361.500 90.622,361.728 90.978,362.006 91.311 C 362.649 92.081,362.689 92.140,363.051 92.848 C 363.216 93.172,363.542 93.657,363.775 93.927 C 364.008 94.196,364.305 94.623,364.437 94.875 C 364.568 95.127,364.748 95.333,364.838 95.333 C 364.927 95.333,365.000 95.446,365.000 95.583 C 365.000 95.721,365.057 95.833,365.127 95.833 C 365.196 95.833,365.352 95.991,365.472 96.184 C 365.654 96.475,365.653 96.513,365.471 96.407 C 365.349 96.337,365.408 96.460,365.601 96.681 C 365.794 96.902,366.081 97.310,366.240 97.588 C 366.940 98.814,367.382 98.911,372.564 98.968 L 377.212 99.020 376.606 98.176 C 376.273 97.712,376.000 97.275,376.000 97.204 C 376.000 97.089,374.636 95.135,374.107 94.493 C 373.991 94.351,373.853 94.126,373.801 93.993 C 373.703 93.739,372.244 91.744,371.878 91.363 C 371.762 91.242,371.667 91.036,371.667 90.905 C 371.667 90.774,371.592 90.667,371.500 90.667 C 371.408 90.667,371.333 90.572,371.333 90.457 C 371.333 90.341,371.157 90.057,370.942 89.824 C 370.726 89.592,370.333 89.068,370.067 88.659 C 369.801 88.251,369.490 87.818,369.375 87.696 C 369.261 87.575,369.167 87.396,369.167 87.298 C 369.167 87.200,368.773 86.624,368.291 86.018 C 367.810 85.412,366.741 83.914,365.916 82.689 C 365.092 81.464,364.091 80.121,363.694 79.704 C 363.071 79.051,363.009 78.925,363.247 78.792 C 363.683 78.548,365.000 77.287,365.000 77.113 C 365.000 77.027,365.262 76.708,365.583 76.406 C 365.904 76.103,366.167 75.779,366.167 75.686 C 366.167 75.593,366.260 75.457,366.375 75.383 C 366.490 75.310,366.883 74.876,367.250 74.419 C 367.617 73.961,368.029 73.465,368.167 73.317 C 368.744 72.691,370.165 71.013,371.307 69.607 C 371.980 68.778,372.801 67.852,373.131 67.550 C 373.462 67.247,373.680 67.000,373.616 67.000 C 373.552 67.000,373.631 66.858,373.792 66.683 C 373.952 66.509,374.349 66.078,374.674 65.725 C 375.000 65.372,375.450 64.803,375.674 64.459 C 375.899 64.116,376.140 63.835,376.208 63.834 C 376.277 63.834,376.333 63.717,376.333 63.576 C 376.333 63.264,367.587 63.227,367.208 63.537 C 367.094 63.631,367.000 63.656,367.000 63.592 C 367.000 63.274,365.010 65.036,365.003 65.362 C 365.001 65.424,364.626 65.874,364.168 66.362 C 363.710 66.850,363.335 67.344,363.335 67.458 C 363.334 67.573,363.240 67.670,363.125 67.673 C 363.010 67.677,362.187 68.595,361.294 69.715 C 360.402 70.834,359.483 71.953,359.253 72.201 C 359.022 72.449,358.833 72.730,358.833 72.826 C 358.833 72.922,358.746 73.000,358.639 73.000 C 358.532 73.000,358.486 73.042,358.538 73.093 C 358.589 73.145,358.471 73.355,358.274 73.561 C 357.902 73.952,357.268 74.699,356.417 75.752 C 355.784 76.534,355.374 76.701,353.875 76.786 L 352.667 76.854 352.667 62.172 L 352.667 47.491 348.250 47.505 L 343.833 47.520 343.833 72.997 M135.924 49.125 C 135.880 49.240,135.916 49.333,136.005 49.333 C 136.094 49.333,136.167 49.421,136.167 49.529 C 136.167 49.636,136.291 49.861,136.444 50.030 C 136.743 50.360,136.869 50.566,137.488 51.736 C 137.710 52.156,137.946 52.500,138.011 52.500 C 138.077 52.500,138.173 52.669,138.225 52.875 C 138.277 53.081,138.702 53.838,139.170 54.556 C 139.637 55.275,140.091 56.025,140.179 56.223 C 140.267 56.421,140.485 56.808,140.664 57.083 C 140.844 57.358,141.137 57.851,141.316 58.178 C 141.496 58.505,141.760 58.870,141.904 58.990 C 142.049 59.110,142.167 59.353,142.167 59.530 C 142.167 59.732,142.239 59.808,142.359 59.734 C 142.477 59.661,142.506 59.688,142.435 59.804 C 142.370 59.908,142.722 60.614,143.215 61.372 C 143.709 62.130,144.244 63.028,144.405 63.367 C 144.566 63.707,144.803 64.072,144.932 64.179 C 145.061 64.287,145.167 64.477,145.167 64.604 C 145.167 64.730,145.246 64.833,145.343 64.833 C 145.440 64.833,145.479 64.900,145.428 64.981 C 145.378 65.062,145.447 65.220,145.582 65.332 C 145.716 65.444,145.940 65.752,146.080 66.018 C 146.219 66.283,146.451 66.724,146.594 66.997 C 146.737 67.270,146.917 67.532,146.993 67.579 C 147.070 67.626,147.293 67.974,147.490 68.351 C 147.687 68.729,148.144 69.485,148.507 70.031 C 148.870 70.577,149.167 71.122,149.167 71.241 C 149.167 71.361,149.287 71.559,149.434 71.681 C 149.581 71.803,149.772 72.056,149.858 72.243 C 150.032 72.621,150.185 72.874,150.964 74.074 C 151.259 74.528,151.500 74.986,151.500 75.093 C 151.500 75.200,151.706 75.553,151.958 75.878 C 152.400 76.446,153.030 77.494,153.034 77.667 C 153.036 77.712,153.178 77.949,153.352 78.192 C 153.525 78.436,153.667 78.708,153.667 78.797 C 153.667 78.886,153.779 79.053,153.917 79.167 C 154.134 79.347,154.167 80.668,154.167 89.187 L 154.167 99.000 158.995 99.000 L 163.823 99.000 163.831 89.312 C 163.839 79.351,163.866 78.900,164.491 78.333 C 164.542 78.287,164.679 78.100,164.795 77.917 C 166.111 75.842,167.539 73.460,168.143 72.328 C 168.413 71.821,169.025 70.816,169.502 70.096 C 169.979 69.375,170.384 68.692,170.401 68.577 C 170.427 68.395,171.264 67.067,171.500 66.833 C 171.668 66.666,172.017 66.072,172.209 65.625 C 172.318 65.373,172.465 65.167,172.537 65.167 C 172.608 65.167,172.667 65.023,172.667 64.847 C 172.667 64.672,172.723 64.503,172.792 64.472 C 172.971 64.392,173.833 63.039,173.833 62.837 C 173.833 62.743,173.921 62.667,174.028 62.667 C 174.135 62.667,174.172 62.616,174.110 62.554 C 174.048 62.492,174.161 62.267,174.361 62.054 C 174.561 61.841,174.680 61.667,174.625 61.667 C 174.570 61.667,174.988 60.919,175.554 60.006 C 176.712 58.138,177.507 56.719,177.486 56.560 C 177.478 56.502,177.565 56.396,177.680 56.325 C 177.889 56.196,178.580 55.086,179.128 54.000 C 179.289 53.679,179.716 52.967,180.075 52.417 C 180.434 51.867,180.887 51.117,181.082 50.750 C 181.277 50.383,181.597 49.821,181.793 49.500 L 182.150 48.917 177.700 48.946 C 175.253 48.962,172.968 49.019,172.623 49.073 C 172.036 49.165,170.542 50.264,170.738 50.460 C 170.782 50.504,170.564 50.937,170.254 51.421 C 169.944 51.906,169.735 52.347,169.790 52.401 C 169.844 52.455,169.798 52.500,169.686 52.500 C 169.575 52.500,169.071 53.344,168.566 54.375 C 167.577 56.396,167.484 56.563,166.795 57.554 C 166.544 57.914,166.380 58.274,166.430 58.354 C 166.479 58.434,166.428 58.500,166.315 58.500 C 166.203 58.500,166.153 58.542,166.205 58.594 C 166.257 58.646,166.007 59.188,165.650 59.800 C 165.292 60.411,165.000 60.968,165.000 61.037 C 165.000 61.106,164.887 61.295,164.749 61.456 C 164.610 61.618,164.492 61.803,164.486 61.869 C 164.475 61.986,163.851 63.213,163.235 64.326 C 163.060 64.642,162.823 65.004,162.708 65.129 C 162.594 65.255,162.500 65.432,162.500 65.524 C 162.500 65.615,162.387 65.804,162.248 65.942 C 162.110 66.080,162.040 66.262,162.092 66.347 C 162.144 66.431,162.107 66.500,162.010 66.500 C 161.913 66.500,161.849 66.556,161.869 66.625 C 161.906 66.757,161.521 67.526,161.347 67.667 C 161.113 67.855,159.855 70.466,159.951 70.562 C 160.009 70.620,159.964 70.667,159.851 70.667 C 159.739 70.667,159.682 70.723,159.725 70.793 C 159.768 70.862,159.625 71.331,159.408 71.835 C 159.191 72.338,159.010 72.649,159.007 72.525 C 159.003 72.401,158.625 71.513,158.167 70.551 C 157.708 69.589,157.333 68.734,157.333 68.651 C 157.333 68.568,157.254 68.500,157.157 68.500 C 157.060 68.500,157.026 68.426,157.082 68.335 C 157.139 68.244,156.999 67.984,156.772 67.757 C 156.545 67.530,156.306 67.173,156.240 66.964 C 156.175 66.754,155.906 66.270,155.644 65.887 C 155.381 65.503,155.167 65.081,155.167 64.949 C 155.167 64.816,155.055 64.615,154.919 64.502 C 154.782 64.388,154.707 64.235,154.753 64.162 C 154.798 64.089,154.777 64.003,154.706 63.973 C 154.635 63.942,154.280 63.335,153.917 62.625 C 153.554 61.915,153.199 61.333,153.129 61.333 C 153.058 61.333,153.000 61.191,153.000 61.018 C 153.000 60.844,152.892 60.661,152.760 60.610 C 152.628 60.559,152.530 60.381,152.542 60.213 C 152.555 60.045,152.410 59.685,152.219 59.412 C 151.763 58.758,150.649 56.703,150.675 56.564 C 150.686 56.503,150.632 56.408,150.554 56.352 C 150.477 56.296,150.264 55.953,150.082 55.591 C 149.899 55.228,149.587 54.682,149.388 54.378 C 149.188 54.073,148.856 53.470,148.649 53.037 C 148.442 52.604,148.205 52.204,148.122 52.148 C 148.039 52.092,147.973 51.979,147.974 51.898 C 147.988 51.095,146.322 49.242,145.437 49.076 C 144.249 48.853,136.012 48.896,135.924 49.125 M280.110 49.092 C 280.188 49.295,280.162 49.350,280.028 49.268 C 279.912 49.196,279.833 49.250,279.833 49.401 C 279.833 49.541,279.710 49.939,279.560 50.286 C 279.410 50.633,279.233 51.067,279.166 51.250 C 279.100 51.433,278.885 51.929,278.689 52.352 C 278.494 52.774,278.333 53.238,278.333 53.383 C 278.333 53.528,278.269 53.687,278.191 53.735 C 278.113 53.783,277.915 54.256,277.752 54.786 C 277.588 55.316,277.234 56.227,276.966 56.810 C 276.697 57.393,276.466 58.011,276.453 58.185 C 276.440 58.358,276.370 58.500,276.298 58.500 C 276.226 58.500,276.167 58.570,276.167 58.656 C 276.167 58.742,276.080 59.023,275.975 59.281 C 275.869 59.539,275.759 59.865,275.731 60.006 C 275.703 60.146,275.550 60.559,275.392 60.922 C 275.233 61.286,275.093 61.621,275.080 61.667 C 275.067 61.712,274.886 62.125,274.678 62.583 C 274.470 63.042,274.285 63.492,274.266 63.583 C 274.247 63.675,274.067 64.115,273.866 64.562 C 273.665 65.008,273.395 65.730,273.265 66.167 C 273.136 66.603,272.826 67.400,272.577 67.938 C 272.328 68.476,272.066 69.067,271.996 69.250 C 271.925 69.433,271.735 69.883,271.573 70.250 C 271.411 70.617,271.279 71.029,271.280 71.167 C 271.282 71.304,271.236 71.454,271.179 71.500 C 271.041 71.611,269.497 75.447,268.808 77.393 C 268.617 77.930,268.362 78.562,268.239 78.798 C 268.117 79.033,268.055 79.288,268.102 79.363 C 268.148 79.438,268.107 79.500,268.010 79.500 C 267.913 79.500,267.833 79.635,267.833 79.800 C 267.833 79.965,267.768 80.171,267.688 80.258 C 267.608 80.345,267.299 81.092,267.001 81.917 C 266.703 82.742,266.319 83.735,266.147 84.123 C 265.974 84.512,265.833 84.911,265.833 85.010 C 265.833 85.109,265.648 85.507,265.421 85.895 C 265.194 86.282,264.981 86.745,264.948 86.924 C 264.915 87.103,264.809 87.438,264.711 87.667 C 264.514 88.130,262.940 92.060,262.742 92.583 C 262.673 92.767,262.595 93.026,262.568 93.160 C 262.541 93.293,262.447 93.556,262.360 93.743 C 262.008 94.492,261.533 95.627,261.239 96.417 C 261.069 96.875,260.837 97.432,260.723 97.655 C 260.610 97.877,260.555 98.121,260.602 98.196 C 260.648 98.272,260.616 98.333,260.529 98.333 C 260.443 98.333,260.333 98.483,260.285 98.667 C 260.167 99.119,267.893 99.188,268.955 98.745 C 269.764 98.407,270.697 97.684,270.577 97.489 C 270.524 97.403,270.546 97.333,270.626 97.333 C 270.759 97.333,271.378 95.635,271.328 95.410 C 271.316 95.358,271.412 95.151,271.542 94.950 C 271.671 94.748,271.917 94.171,272.089 93.667 C 272.260 93.162,272.460 92.679,272.534 92.592 C 272.607 92.505,272.667 92.341,272.667 92.228 C 272.667 92.114,272.756 91.811,272.866 91.553 C 272.975 91.294,273.071 91.008,273.078 90.917 C 273.092 90.741,273.712 89.113,274.102 88.225 C 274.229 87.936,274.336 87.598,274.339 87.475 C 274.358 86.640,274.003 86.667,285.033 86.667 L 295.280 86.667 295.473 87.091 C 295.580 87.325,295.667 87.629,295.667 87.768 C 295.667 87.906,295.735 87.977,295.819 87.926 C 295.902 87.874,295.952 87.961,295.929 88.119 C 295.884 88.421,296.578 90.268,296.870 90.625 C 296.964 90.740,297.002 90.833,296.955 90.833 C 296.832 90.833,297.743 93.469,298.626 95.667 C 298.718 95.896,298.791 96.121,298.789 96.167 C 298.776 96.385,299.513 97.635,299.899 98.050 C 300.720 98.933,301.121 99.000,305.578 99.000 C 309.937 99.000,309.961 98.995,309.407 98.204 C 309.265 98.000,309.187 97.833,309.234 97.833 C 309.282 97.833,309.054 97.215,308.727 96.458 C 308.401 95.702,308.109 94.971,308.080 94.833 C 308.050 94.696,308.010 94.565,307.992 94.542 C 307.973 94.519,307.945 94.444,307.929 94.375 C 307.845 94.012,307.586 93.326,307.253 92.583 C 306.572 91.062,306.155 89.998,305.831 88.949 C 305.655 88.379,305.398 87.763,305.261 87.581 C 305.123 87.399,305.008 87.154,305.005 87.037 C 305.002 86.920,304.732 86.258,304.403 85.567 C 304.075 84.875,303.775 84.132,303.735 83.915 C 303.696 83.697,303.394 82.896,303.065 82.135 C 302.440 80.687,301.833 79.156,301.490 78.167 C 301.379 77.846,301.224 77.453,301.144 77.294 C 301.065 77.135,301.000 76.931,301.000 76.840 C 301.000 76.683,300.547 75.621,299.790 74.000 C 299.597 73.587,299.452 73.196,299.468 73.131 C 299.483 73.065,299.410 72.803,299.304 72.547 C 299.198 72.292,299.105 72.033,299.097 71.972 C 299.090 71.911,299.027 71.805,298.958 71.736 C 298.890 71.667,298.833 71.513,298.833 71.393 C 298.833 71.272,298.581 70.629,298.273 69.962 C 297.964 69.295,297.663 68.544,297.603 68.292 C 297.543 68.040,297.416 67.833,297.320 67.833 C 297.225 67.833,297.190 67.764,297.243 67.679 C 297.363 67.483,296.906 66.304,295.656 63.583 C 295.446 63.125,295.258 62.675,295.238 62.583 C 295.137 62.100,294.425 60.142,294.086 59.417 C 293.484 58.126,292.778 56.316,292.778 56.062 C 292.778 55.936,292.703 55.833,292.611 55.833 C 292.519 55.833,292.494 55.784,292.554 55.724 C 292.614 55.663,292.580 55.513,292.478 55.390 C 292.376 55.267,292.332 55.167,292.381 55.167 C 292.458 55.167,291.766 53.432,291.085 51.917 C 290.899 51.503,290.695 50.933,290.577 50.500 C 290.547 50.388,290.340 49.835,290.157 49.375 L 290.007 49.000 285.267 49.000 C 282.660 49.000,280.408 48.954,280.262 48.898 C 280.060 48.821,280.024 48.867,280.110 49.092 M285.167 58.604 C 285.167 58.753,285.436 59.671,285.765 60.646 C 286.095 61.620,286.380 62.508,286.399 62.620 C 286.419 62.732,286.487 62.876,286.551 62.940 C 286.614 63.003,286.667 63.158,286.667 63.283 C 286.667 63.408,286.791 63.790,286.943 64.130 C 287.095 64.471,287.227 64.800,287.235 64.861 C 287.243 64.922,287.306 65.028,287.375 65.097 C 287.444 65.166,287.500 65.330,287.500 65.461 C 287.500 65.592,287.602 65.936,287.727 66.225 C 288.156 67.220,288.341 67.700,288.658 68.640 C 288.833 69.159,289.069 69.808,289.182 70.083 C 289.296 70.358,289.401 70.621,289.417 70.667 C 289.482 70.857,289.717 71.476,290.081 72.417 C 290.294 72.967,290.599 73.829,290.758 74.333 C 291.019 75.162,291.456 76.361,291.822 77.250 C 292.129 77.998,292.289 78.423,292.309 78.542 C 292.320 78.612,292.443 78.940,292.581 79.271 C 292.720 79.603,292.833 79.902,292.833 79.937 C 292.833 80.050,277.392 80.003,277.279 79.890 C 277.219 79.830,277.253 79.680,277.355 79.557 C 277.457 79.434,277.485 79.333,277.417 79.333 C 277.348 79.333,277.368 79.240,277.460 79.125 C 277.553 79.010,277.684 78.657,277.752 78.339 C 277.820 78.021,277.933 77.646,278.004 77.505 C 278.171 77.174,278.746 75.787,278.764 75.672 C 278.784 75.554,278.995 74.996,279.178 74.583 C 279.259 74.400,279.547 73.568,279.819 72.735 C 280.091 71.902,280.502 70.794,280.733 70.273 C 280.963 69.753,281.150 69.309,281.147 69.288 C 281.138 69.205,281.518 68.228,281.692 67.886 C 281.794 67.686,281.892 67.386,281.909 67.219 C 281.926 67.053,282.028 66.706,282.136 66.447 C 282.245 66.189,282.333 65.875,282.333 65.749 C 282.333 65.623,282.406 65.475,282.495 65.419 C 282.585 65.364,282.741 65.004,282.844 64.618 C 282.946 64.232,283.128 63.692,283.247 63.417 C 283.686 62.406,283.848 61.909,283.883 61.471 C 283.895 61.317,283.954 61.222,284.015 61.259 C 284.075 61.297,284.171 61.040,284.227 60.689 C 284.459 59.236,285.167 57.666,285.167 58.604 M198.333 63.087 C 196.178 63.425,195.000 63.697,195.000 63.856 C 195.000 63.935,194.944 63.988,194.875 63.974 C 194.726 63.942,193.930 64.227,193.000 64.646 C 190.801 65.635,186.038 69.887,186.426 70.515 C 186.468 70.583,186.445 70.663,186.376 70.694 C 186.271 70.741,185.502 72.331,184.980 73.583 C 184.682 74.298,184.333 75.478,184.282 75.943 C 184.253 76.212,184.177 76.515,184.115 76.616 C 184.052 76.717,184.009 76.976,184.020 77.192 C 184.041 77.620,183.841 78.876,183.736 78.985 C 183.699 79.022,183.763 79.168,183.876 79.308 C 184.016 79.481,184.020 79.526,183.889 79.447 C 183.745 79.361,183.694 79.813,183.691 81.169 C 183.690 82.179,183.740 82.975,183.803 82.936 C 183.865 82.897,183.890 83.205,183.857 83.620 C 183.823 84.036,183.861 84.336,183.940 84.287 C 184.020 84.238,184.096 84.397,184.109 84.641 C 184.203 86.305,184.757 88.261,185.519 89.617 C 185.695 89.930,185.859 90.320,185.884 90.485 C 185.909 90.650,186.058 90.980,186.215 91.220 C 186.372 91.459,186.500 91.733,186.500 91.827 C 186.500 91.922,186.575 92.000,186.667 92.000 C 186.758 92.000,186.833 92.103,186.833 92.228 C 186.833 92.354,187.133 92.748,187.500 93.103 C 187.866 93.459,188.166 93.828,188.167 93.922 C 188.167 94.194,189.875 95.786,190.304 95.914 C 190.517 95.978,190.649 96.073,190.597 96.125 C 190.388 96.334,193.372 98.043,194.293 98.243 C 194.592 98.308,195.048 98.466,195.307 98.595 C 195.566 98.724,196.034 98.863,196.347 98.904 C 196.660 98.944,196.917 98.988,196.917 99.002 C 196.917 99.015,197.067 99.063,197.250 99.109 C 199.269 99.618,204.261 99.569,206.250 99.021 C 208.245 98.472,209.223 98.144,209.484 97.936 C 209.613 97.834,209.743 97.766,209.773 97.787 C 209.911 97.878,211.346 97.105,212.309 96.420 C 213.779 95.377,215.803 93.252,216.247 92.286 C 216.518 91.696,216.819 91.205,217.099 90.896 C 217.199 90.786,217.378 90.445,217.496 90.139 C 217.614 89.833,217.856 89.267,218.034 88.880 C 218.213 88.492,218.311 88.099,218.253 88.005 C 218.195 87.910,218.222 87.833,218.313 87.833 C 218.405 87.833,218.471 87.702,218.461 87.542 C 218.451 87.381,218.564 86.837,218.711 86.333 C 219.335 84.201,219.453 79.125,218.932 76.833 C 218.776 76.146,218.612 75.396,218.568 75.167 C 218.355 74.053,217.929 72.883,217.309 71.708 C 216.933 70.998,216.518 70.210,216.384 69.958 C 216.251 69.706,216.073 69.500,215.988 69.500 C 215.903 69.500,215.833 69.414,215.833 69.309 C 215.833 69.057,214.691 67.667,214.484 67.667 C 214.395 67.667,214.093 67.404,213.811 67.083 C 213.529 66.762,213.192 66.500,213.061 66.500 C 212.930 66.500,212.780 66.387,212.727 66.250 C 212.674 66.112,212.559 66.000,212.471 66.000 C 212.382 66.000,211.997 65.785,211.613 65.522 C 210.369 64.669,207.952 63.584,207.551 63.699 C 207.477 63.720,207.241 63.640,207.027 63.522 C 206.813 63.403,206.605 63.340,206.564 63.380 C 206.524 63.421,206.061 63.347,205.537 63.216 C 204.212 62.886,200.089 62.812,198.333 63.087 M322.250 63.117 C 321.517 63.251,320.752 63.356,320.550 63.350 C 320.348 63.343,320.138 63.412,320.082 63.503 C 320.026 63.593,319.816 63.667,319.615 63.667 C 319.165 63.667,317.063 64.673,316.516 65.151 C 316.296 65.343,316.027 65.500,315.918 65.500 C 315.721 65.500,314.333 66.888,314.333 67.085 C 314.333 67.244,313.951 67.589,313.646 67.704 C 313.371 67.808,312.728 68.979,312.615 69.583 C 312.482 70.289,312.281 70.925,312.130 71.116 C 311.549 71.857,311.847 76.078,312.602 77.784 C 312.756 78.132,312.902 78.508,312.926 78.619 C 313.087 79.376,316.115 82.167,316.774 82.167 C 316.898 82.167,317.000 82.223,317.000 82.293 C 317.000 82.429,317.129 82.486,319.459 83.397 C 320.308 83.729,321.096 84.003,321.209 84.006 C 321.323 84.009,321.715 84.152,322.080 84.325 C 322.445 84.498,322.796 84.606,322.860 84.567 C 322.924 84.527,323.022 84.568,323.077 84.657 C 323.132 84.746,323.287 84.777,323.422 84.725 C 323.557 84.673,323.667 84.717,323.667 84.823 C 323.667 84.928,323.760 84.996,323.875 84.974 C 324.182 84.913,325.261 85.298,326.573 85.937 C 327.209 86.247,327.814 86.500,327.917 86.500 C 328.098 86.500,328.702 87.209,329.119 87.910 C 330.988 91.052,325.282 94.504,320.833 92.923 C 320.329 92.744,319.879 92.591,319.833 92.583 C 319.787 92.576,319.506 92.439,319.208 92.280 C 318.910 92.121,318.667 92.036,318.667 92.091 C 318.667 92.146,318.548 92.072,318.403 91.927 C 318.258 91.782,318.079 91.701,318.005 91.747 C 317.932 91.792,317.778 91.718,317.665 91.581 C 317.552 91.445,317.389 91.333,317.304 91.333 C 317.219 91.333,316.873 91.146,316.536 90.917 C 315.138 89.967,313.311 90.522,312.473 92.150 C 312.351 92.388,312.212 92.621,312.165 92.667 C 311.911 92.916,311.181 94.167,311.289 94.169 C 311.359 94.171,311.330 94.227,311.225 94.294 C 311.120 94.362,311.007 94.567,310.975 94.750 C 310.943 94.933,310.863 95.123,310.798 95.172 C 310.666 95.272,313.345 97.090,313.542 97.035 C 313.610 97.016,313.667 97.079,313.667 97.177 C 313.667 97.274,313.742 97.307,313.833 97.250 C 313.925 97.193,314.000 97.217,314.000 97.303 C 314.000 97.474,314.898 97.889,315.268 97.889 C 315.396 97.889,315.500 97.951,315.500 98.028 C 315.500 98.104,315.638 98.167,315.808 98.167 C 315.977 98.167,316.333 98.275,316.599 98.408 C 317.167 98.691,318.800 99.133,319.750 99.262 C 322.447 99.626,322.919 99.639,325.558 99.431 C 327.639 99.266,331.253 98.250,331.833 97.667 C 331.879 97.621,332.119 97.479,332.366 97.351 C 333.935 96.543,335.990 94.255,336.591 92.648 C 336.741 92.246,336.925 91.767,337.000 91.583 C 337.985 89.164,337.730 84.795,336.525 83.441 C 336.374 83.271,336.287 83.121,336.332 83.108 C 336.468 83.068,335.289 81.500,335.123 81.500 C 335.039 81.500,334.846 81.351,334.693 81.170 C 334.323 80.727,331.663 79.149,331.479 79.263 C 331.399 79.313,331.333 79.286,331.333 79.204 C 331.333 79.121,330.902 78.917,330.375 78.749 C 329.848 78.582,328.854 78.241,328.167 77.991 C 327.479 77.741,326.579 77.440,326.167 77.322 C 325.754 77.204,325.342 77.066,325.250 77.015 C 325.158 76.964,325.027 76.911,324.958 76.898 C 324.890 76.886,324.815 76.860,324.792 76.842 C 324.769 76.824,324.595 76.779,324.405 76.743 C 324.215 76.707,323.840 76.563,323.572 76.423 C 323.303 76.283,322.952 76.168,322.792 76.168 C 322.631 76.167,322.498 76.110,322.496 76.042 C 322.494 75.973,322.156 75.692,321.745 75.417 C 321.334 75.142,320.956 74.785,320.904 74.625 C 320.853 74.465,320.747 74.333,320.669 74.333 C 320.524 74.333,320.285 73.526,320.249 72.917 C 320.191 71.947,321.388 70.118,322.217 69.910 C 322.464 69.848,322.667 69.727,322.667 69.641 C 322.667 69.556,322.760 69.501,322.875 69.521 C 322.990 69.540,323.383 69.493,323.750 69.417 C 324.788 69.200,326.841 69.219,327.644 69.451 C 328.045 69.567,328.433 69.625,328.508 69.578 C 328.583 69.532,328.691 69.571,328.748 69.664 C 328.806 69.757,328.996 69.833,329.171 69.833 C 329.346 69.833,330.233 70.196,331.143 70.639 C 333.408 71.742,334.504 71.672,335.257 70.375 C 335.430 70.077,335.631 69.833,335.703 69.833 C 335.775 69.833,335.833 69.755,335.833 69.660 C 335.833 69.564,335.981 69.328,336.161 69.134 C 336.341 68.941,336.457 68.732,336.419 68.670 C 336.380 68.608,336.582 68.274,336.867 67.929 C 337.352 67.340,337.336 67.016,336.820 67.003 C 336.767 67.001,336.631 66.829,336.519 66.619 C 336.407 66.409,336.179 66.166,336.013 66.077 C 334.792 65.430,334.238 65.104,334.166 64.992 C 334.054 64.820,331.500 63.659,331.500 63.780 C 331.500 63.832,331.391 63.784,331.257 63.673 C 331.124 63.562,330.941 63.516,330.852 63.572 C 330.763 63.627,330.643 63.597,330.587 63.505 C 330.530 63.414,330.318 63.343,330.117 63.350 C 329.915 63.356,329.075 63.242,328.250 63.098 C 326.438 62.780,324.056 62.788,322.250 63.117 M225.239 63.551 C 224.930 64.358,225.319 88.832,225.648 89.228 C 225.749 89.349,225.793 89.485,225.748 89.530 C 225.616 89.661,225.951 91.186,226.271 91.917 C 226.621 92.715,226.598 92.659,226.750 93.125 C 226.817 93.331,226.923 93.500,226.986 93.500 C 227.049 93.500,227.189 93.746,227.297 94.046 C 228.053 96.136,231.689 98.811,234.370 99.250 C 234.671 99.299,235.142 99.387,235.417 99.447 C 236.553 99.691,238.786 99.611,240.820 99.252 C 241.709 99.096,244.035 98.160,244.621 97.723 C 244.917 97.503,245.179 97.344,245.204 97.370 C 245.272 97.439,247.340 95.853,247.893 95.307 C 248.577 94.632,248.566 94.615,248.946 96.917 C 249.247 98.742,249.823 99.000,253.608 99.000 L 256.667 99.000 256.667 81.167 L 256.667 63.333 252.250 63.333 L 247.833 63.333 247.833 76.139 L 247.833 88.945 247.294 89.431 C 244.337 92.096,239.897 93.360,237.675 92.171 C 237.472 92.062,237.266 92.012,237.218 92.060 C 237.122 92.156,237.036 92.095,236.125 91.299 C 235.781 90.998,235.500 90.658,235.500 90.543 C 235.500 90.428,235.425 90.333,235.333 90.333 C 235.242 90.333,235.167 90.236,235.167 90.117 C 235.167 89.998,235.077 89.811,234.968 89.702 C 234.859 89.593,234.753 89.409,234.731 89.293 C 234.710 89.178,234.576 88.709,234.434 88.252 C 234.211 87.534,234.174 85.795,234.169 75.524 C 234.165 68.981,234.121 63.562,234.071 63.481 C 233.914 63.226,225.338 63.295,225.239 63.551 M202.250 69.607 C 203.793 69.639,205.667 70.041,205.667 70.341 C 205.667 70.408,205.929 70.587,206.250 70.739 C 206.571 70.891,206.833 71.087,206.833 71.174 C 206.833 71.262,206.911 71.333,207.007 71.333 C 207.102 71.333,207.342 71.483,207.538 71.667 C 207.735 71.850,207.826 72.001,207.740 72.003 C 207.654 72.004,207.665 72.060,207.764 72.128 C 208.056 72.325,209.101 74.332,209.478 75.417 C 210.058 77.090,210.334 80.906,210.062 83.500 C 210.009 84.004,209.949 84.679,209.928 85.000 C 209.841 86.344,208.986 88.380,207.897 89.833 C 207.250 90.697,206.241 91.667,205.988 91.667 C 205.925 91.667,205.603 91.780,205.271 91.919 C 204.940 92.057,204.632 92.176,204.588 92.183 C 204.544 92.189,204.132 92.294,203.673 92.415 C 202.608 92.696,200.399 92.698,199.340 92.419 C 198.889 92.300,198.478 92.244,198.427 92.296 C 198.375 92.347,198.333 92.310,198.333 92.213 C 198.333 92.042,197.558 91.746,197.279 91.810 C 197.007 91.873,194.662 89.362,194.401 88.729 C 194.255 88.374,194.034 87.858,193.910 87.583 C 192.990 85.538,192.544 80.433,193.043 77.667 C 193.520 75.025,195.420 71.167,196.245 71.167 C 196.284 71.167,196.639 70.954,197.033 70.693 C 197.954 70.085,199.086 69.646,199.412 69.771 C 199.552 69.825,199.667 69.801,199.667 69.718 C 199.667 69.635,199.929 69.598,200.250 69.635 C 200.663 69.683,200.834 69.637,200.836 69.477 C 200.837 69.340,200.887 69.316,200.961 69.417 C 201.028 69.508,201.608 69.594,202.250 69.607 " stroke="none" fill="#1c64fb" fill-rule="evenodd"></path><path id="path2" d="M67.143 25.404 C 67.110 25.432,66.333 25.502,65.417 25.559 C 63.856 25.655,61.906 25.896,61.102 26.090 C 60.908 26.137,60.413 26.207,60.000 26.246 C 59.587 26.285,59.063 26.363,58.833 26.421 C 58.604 26.479,58.267 26.552,58.083 26.583 C 57.559 26.672,51.476 28.546,50.750 28.842 C 50.567 28.917,50.079 29.121,49.667 29.295 C 49.254 29.469,48.842 29.631,48.750 29.656 C 48.658 29.681,48.277 29.881,47.902 30.101 C 47.527 30.320,47.108 30.500,46.970 30.500 C 46.620 30.500,44.067 31.783,43.274 32.357 C 42.912 32.619,42.554 32.833,42.477 32.833 C 42.296 32.833,39.600 34.691,39.528 34.866 C 39.497 34.940,39.378 35.000,39.262 35.000 C 39.146 35.000,38.916 35.150,38.750 35.333 C 38.584 35.517,38.375 35.667,38.284 35.667 C 38.194 35.667,37.803 35.948,37.414 36.292 C 36.394 37.194,35.815 37.667,35.733 37.667 C 35.693 37.667,35.336 37.985,34.938 38.375 C 34.540 38.765,33.511 39.758,32.650 40.582 C 31.790 41.406,30.829 42.418,30.516 42.832 C 30.202 43.245,29.796 43.715,29.614 43.875 C 29.431 44.035,29.335 44.167,29.400 44.167 C 29.464 44.167,29.326 44.344,29.092 44.561 C 28.858 44.778,28.667 45.028,28.667 45.118 C 28.667 45.208,28.507 45.425,28.312 45.599 C 27.958 45.915,27.280 46.857,26.866 47.607 C 26.746 47.823,26.583 48.000,26.502 48.000 C 26.422 48.000,26.314 48.132,26.263 48.293 C 26.212 48.454,25.840 49.026,25.437 49.565 C 24.614 50.666,24.000 51.748,24.000 52.099 C 24.000 52.228,23.936 52.333,23.858 52.333 C 23.780 52.333,23.475 52.857,23.179 53.498 C 22.884 54.138,22.572 54.706,22.485 54.759 C 22.399 54.813,22.371 54.926,22.424 55.012 C 22.477 55.097,22.452 55.167,22.368 55.167 C 22.285 55.167,22.100 55.523,21.956 55.958 C 21.812 56.394,21.458 57.313,21.169 58.000 C 20.543 59.489,19.871 61.417,19.772 62.008 C 19.733 62.241,19.549 62.953,19.364 63.591 C 18.954 64.999,18.377 67.371,18.250 68.167 C 18.199 68.487,18.120 68.975,18.076 69.250 C 17.905 70.312,17.793 71.455,17.772 72.375 C 17.760 72.901,17.712 73.333,17.667 73.333 C 17.436 73.334,17.660 82.545,17.922 83.841 C 17.968 84.066,18.077 84.737,18.164 85.333 C 18.252 85.929,18.595 87.467,18.927 88.750 C 19.258 90.033,19.633 91.561,19.760 92.144 C 19.887 92.727,20.060 93.290,20.145 93.394 C 20.229 93.498,20.377 93.846,20.472 94.167 C 20.568 94.487,20.916 95.425,21.246 96.250 C 21.576 97.075,21.905 97.900,21.977 98.083 C 22.592 99.657,24.953 103.926,25.607 104.648 C 25.806 104.866,26.069 105.241,26.192 105.481 C 26.315 105.721,26.491 105.972,26.583 106.039 C 26.675 106.106,26.690 106.163,26.616 106.164 C 26.493 106.166,27.659 107.724,28.250 108.347 C 28.387 108.493,28.500 108.660,28.500 108.720 C 28.500 108.780,28.608 108.962,28.740 109.123 C 29.942 110.595,30.229 110.918,30.588 111.200 C 30.815 111.378,31.000 111.594,31.000 111.679 C 31.000 111.847,34.559 115.500,34.723 115.500 C 34.842 115.500,35.906 116.433,36.385 116.958 C 36.573 117.165,36.788 117.333,36.863 117.333 C 36.939 117.333,37.138 117.465,37.306 117.625 C 37.474 117.785,37.787 118.029,38.001 118.167 C 38.216 118.304,38.659 118.647,38.987 118.929 C 39.315 119.211,40.071 119.733,40.667 120.089 C 41.262 120.446,42.074 120.984,42.471 121.285 C 42.868 121.587,43.272 121.833,43.369 121.833 C 43.467 121.833,43.892 122.043,44.315 122.300 C 44.738 122.557,45.458 122.927,45.917 123.122 C 46.375 123.318,47.125 123.647,47.583 123.855 C 48.042 124.062,48.499 124.246,48.600 124.264 C 48.701 124.282,49.295 124.533,49.920 124.823 C 50.546 125.112,51.513 125.499,52.070 125.682 C 52.627 125.865,53.196 126.060,53.333 126.115 C 54.407 126.548,60.760 128.079,62.167 128.244 C 62.671 128.303,63.421 128.402,63.833 128.464 C 64.246 128.526,66.871 128.573,69.667 128.567 C 75.252 128.556,76.176 128.494,79.187 127.923 C 79.953 127.777,80.956 127.548,81.415 127.414 C 81.874 127.279,82.813 127.005,83.500 126.804 C 84.188 126.604,84.849 126.458,84.971 126.480 C 85.092 126.502,85.298 126.432,85.429 126.323 C 85.560 126.215,85.667 126.182,85.667 126.250 C 85.667 126.318,85.779 126.281,85.917 126.167 C 86.054 126.053,86.167 126.003,86.167 126.056 C 86.167 126.168,87.124 125.843,88.177 125.373 C 88.584 125.192,89.442 124.841,90.083 124.594 C 90.725 124.346,91.646 123.962,92.130 123.739 C 92.613 123.516,93.091 123.333,93.191 123.333 C 93.291 123.333,93.805 123.071,94.333 122.750 C 94.861 122.429,95.372 122.167,95.468 122.167 C 95.564 122.167,95.742 122.069,95.863 121.950 C 95.984 121.831,96.499 121.497,97.007 121.208 C 97.515 120.919,98.147 120.495,98.413 120.267 C 98.679 120.039,98.957 119.890,99.032 119.937 C 99.108 119.983,99.214 119.904,99.269 119.762 C 99.323 119.619,99.422 119.535,99.487 119.575 C 99.552 119.616,99.789 119.484,100.013 119.283 C 100.731 118.636,101.969 117.667,102.077 117.667 C 102.134 117.667,102.346 117.510,102.549 117.318 C 102.751 117.126,103.292 116.657,103.750 116.276 C 104.835 115.374,108.130 112.110,108.917 111.159 C 109.254 110.751,109.805 110.084,110.140 109.677 C 110.476 109.271,110.868 108.821,111.013 108.677 C 111.157 108.534,111.434 108.152,111.629 107.828 C 111.823 107.504,112.179 107.016,112.418 106.744 C 112.658 106.472,112.992 105.987,113.161 105.667 C 113.330 105.346,113.663 104.858,113.900 104.583 C 114.138 104.308,114.333 103.990,114.333 103.875 C 114.333 103.760,114.401 103.667,114.484 103.667 C 114.566 103.667,114.715 103.460,114.815 103.208 C 115.015 102.700,115.308 102.216,115.625 101.870 C 115.740 101.745,115.833 101.538,115.833 101.410 C 115.833 101.282,116.283 100.310,116.833 99.250 C 117.383 98.190,117.833 97.205,117.833 97.061 C 117.833 96.918,117.942 96.564,118.076 96.275 C 118.720 94.880,119.792 91.876,119.929 91.083 C 119.976 90.808,120.158 89.983,120.333 89.250 C 121.600 83.940,121.861 81.799,121.859 76.712 C 121.858 74.583,121.821 72.781,121.776 72.709 C 121.732 72.637,121.643 72.055,121.580 71.414 C 121.439 69.998,121.095 67.932,120.776 66.583 C 120.645 66.033,120.376 64.871,120.177 64.000 C 119.796 62.334,119.677 61.951,118.830 59.667 C 118.541 58.887,118.228 58.025,118.136 57.750 C 117.541 55.987,115.499 51.974,114.223 50.062 C 113.842 49.490,113.480 48.867,113.420 48.678 C 113.360 48.488,113.255 48.333,113.186 48.333 C 113.117 48.333,112.766 47.884,112.405 47.334 C 112.045 46.785,111.694 46.335,111.625 46.334 C 111.556 46.334,111.500 46.253,111.500 46.155 C 111.500 46.057,111.406 45.881,111.292 45.764 C 111.177 45.648,110.896 45.298,110.667 44.987 C 110.438 44.675,110.044 44.234,109.792 44.006 C 109.540 43.779,109.333 43.535,109.333 43.465 C 109.333 43.022,104.871 38.647,102.417 36.683 C 101.958 36.317,101.321 35.799,101.000 35.532 C 100.679 35.266,100.231 34.950,100.004 34.831 C 99.776 34.712,99.226 34.326,98.780 33.974 C 98.335 33.622,97.864 33.333,97.735 33.333 C 97.606 33.333,97.368 33.202,97.206 33.042 C 97.044 32.881,96.726 32.653,96.498 32.534 C 96.270 32.415,95.783 32.135,95.417 31.913 C 94.500 31.356,93.064 30.667,92.821 30.667 C 92.711 30.667,92.012 30.376,91.269 30.021 C 88.971 28.923,88.327 28.650,87.864 28.580 C 87.618 28.542,86.358 28.144,85.063 27.695 C 83.769 27.247,82.194 26.788,81.563 26.676 C 80.933 26.565,80.304 26.430,80.167 26.376 C 80.029 26.323,79.729 26.267,79.500 26.252 C 79.149 26.229,77.622 26.012,74.667 25.566 C 74.020 25.469,67.238 25.322,67.143 25.404 M71.887 46.180 C 72.787 47.227,73.850 48.427,74.248 48.848 C 74.886 49.522,78.162 53.308,81.722 57.485 C 82.379 58.255,83.424 59.455,84.044 60.151 C 84.665 60.847,85.152 61.502,85.128 61.607 C 85.061 61.893,79.693 67.038,79.530 66.973 C 79.452 66.942,78.845 66.279,78.181 65.500 C 77.516 64.721,76.435 63.453,75.778 62.682 C 75.121 61.911,74.208 60.851,73.750 60.326 C 73.292 59.801,72.279 58.618,71.500 57.697 C 70.721 56.776,70.046 56.017,70.000 56.011 C 69.954 56.006,69.204 56.841,68.333 57.869 C 67.462 58.896,66.446 60.077,66.074 60.493 C 65.702 60.909,65.177 61.520,64.907 61.850 C 63.435 63.651,60.453 67.000,60.322 67.000 C 60.097 67.000,55.000 61.972,55.000 61.749 C 55.000 61.575,55.884 60.489,58.471 57.485 C 58.991 56.881,59.942 55.764,60.583 55.004 C 61.225 54.243,62.599 52.638,63.637 51.436 C 64.674 50.234,66.510 48.106,67.717 46.707 C 68.923 45.309,69.986 44.190,70.080 44.220 C 70.173 44.251,70.987 45.133,71.887 46.180 M138.125 48.958 C 139.248 48.987,141.085 48.987,142.208 48.958 C 143.331 48.929,142.412 48.905,140.167 48.905 C 137.921 48.905,137.002 48.929,138.125 48.958 M175.083 48.950 C 178.825 49.069,182.129 49.073,182.058 48.958 C 182.015 48.890,180.091 48.849,177.782 48.868 C 175.473 48.887,174.258 48.924,175.083 48.950 M282.708 48.958 C 284.060 48.986,286.273 48.986,287.625 48.958 C 288.977 48.930,287.871 48.907,285.167 48.907 C 282.462 48.907,281.356 48.930,282.708 48.958 M89.246 66.250 C 89.971 67.121,90.610 67.833,90.666 67.833 C 90.776 67.833,92.667 70.092,92.667 70.224 C 92.667 70.359,79.616 83.254,76.708 85.991 L 74.000 88.541 74.000 93.271 L 74.000 98.000 70.000 98.000 L 66.000 98.000 66.001 93.292 L 66.001 88.583 64.798 87.500 C 64.137 86.904,61.005 83.862,57.839 80.739 C 54.674 77.616,51.052 74.059,49.792 72.833 C 48.531 71.608,47.500 70.538,47.500 70.456 C 47.500 70.269,49.480 67.835,49.636 67.830 C 49.699 67.828,50.306 67.156,50.985 66.337 L 52.220 64.848 53.068 65.636 C 53.535 66.069,54.217 66.701,54.583 67.040 C 55.389 67.784,63.533 75.714,67.281 79.403 L 69.978 82.057 77.114 75.057 C 82.561 69.713,87.810 64.667,87.922 64.667 C 87.924 64.667,88.520 65.379,89.246 66.250 M190.810 65.843 C 190.501 66.112,190.488 66.149,190.750 66.015 C 191.315 65.726,191.592 65.505,191.393 65.503 C 191.289 65.501,191.027 65.654,190.810 65.843 M47.969 76.219 L 50.350 78.604 47.133 82.267 C 45.364 84.281,43.654 86.193,43.333 86.514 C 43.012 86.836,41.775 88.216,40.583 89.582 C 39.392 90.948,38.004 92.524,37.500 93.084 C 36.996 93.645,35.608 95.221,34.417 96.587 C 33.225 97.954,32.008 99.337,31.713 99.661 L 31.176 100.250 31.171 95.194 L 31.167 90.139 32.453 88.611 C 33.160 87.771,34.191 86.595,34.744 85.998 C 35.297 85.401,36.275 84.281,36.917 83.509 C 37.558 82.737,38.421 81.718,38.833 81.246 C 41.099 78.650,41.752 77.897,43.414 75.958 C 44.417 74.790,45.316 73.833,45.412 73.833 C 45.509 73.833,46.659 74.907,47.969 76.219 M95.449 75.515 C 96.256 76.440,97.217 77.554,97.583 77.991 C 97.950 78.429,99.145 79.829,100.239 81.102 C 101.334 82.375,102.678 83.942,103.227 84.583 C 103.776 85.225,104.399 85.921,104.610 86.130 C 104.822 86.338,105.709 87.360,106.581 88.401 L 108.167 90.293 108.167 95.147 C 108.167 98.924,108.120 99.998,107.958 99.989 C 107.844 99.984,106.513 98.560,105.000 96.825 C 103.487 95.091,101.763 93.115,101.167 92.434 C 100.571 91.753,99.408 90.421,98.583 89.474 C 97.758 88.527,96.547 87.189,95.891 86.501 C 95.236 85.813,93.379 83.750,91.766 81.917 L 88.832 78.583 91.248 76.208 C 92.577 74.902,93.735 73.833,93.823 73.833 C 93.910 73.833,94.642 74.590,95.449 75.515 M151.083 74.500 C 151.226 74.775,151.379 75.000,151.425 75.000 C 151.471 75.000,151.392 74.775,151.250 74.500 C 151.108 74.225,150.954 74.000,150.908 74.000 C 150.862 74.000,150.941 74.225,151.083 74.500 " stroke="none" fill="#235cf4" fill-rule="evenodd"></path><path id="path3" d="M84.409 62.375 L 83.750 63.083 84.458 62.425 C 85.117 61.812,85.243 61.667,85.117 61.667 C 85.090 61.667,84.771 61.985,84.409 62.375 M56.583 63.500 C 57.497 64.417,58.281 65.167,58.327 65.167 C 58.373 65.167,57.663 64.417,56.750 63.500 C 55.837 62.583,55.052 61.833,55.006 61.833 C 54.960 61.833,55.670 62.583,56.583 63.500 M85.578 66.875 L 84.583 67.917 85.625 66.922 C 86.198 66.375,86.667 65.906,86.667 65.880 C 86.667 65.757,86.502 65.907,85.578 66.875 M57.250 69.667 C 58.255 70.675,59.115 71.500,59.161 71.500 C 59.207 71.500,58.422 70.675,57.417 69.667 C 56.411 68.658,55.552 67.833,55.506 67.833 C 55.460 67.833,56.245 68.658,57.250 69.667 M83.742 68.542 L 83.083 69.250 83.792 68.591 C 84.450 67.978,84.577 67.833,84.450 67.833 C 84.423 67.833,84.105 68.152,83.742 68.542 M91.991 70.958 L 91.417 71.583 92.042 71.009 C 92.623 70.474,92.743 70.333,92.616 70.333 C 92.588 70.333,92.307 70.615,91.991 70.958 M49.083 72.167 C 49.997 73.083,50.781 73.833,50.827 73.833 C 50.873 73.833,50.163 73.083,49.250 72.167 C 48.337 71.250,47.552 70.500,47.506 70.500 C 47.460 70.500,48.170 71.250,49.083 72.167 M46.160 74.542 C 46.568 74.977,46.925 75.333,46.951 75.333 C 47.077 75.333,46.944 75.184,46.208 74.493 L 45.417 73.750 46.160 74.542 M75.830 76.292 L 74.083 78.083 75.875 76.336 C 76.860 75.375,77.667 74.569,77.667 74.545 C 77.667 74.424,77.453 74.628,75.830 76.292 M90.831 76.625 L 88.750 78.750 90.875 76.669 C 92.849 74.736,93.076 74.500,92.956 74.500 C 92.932 74.500,91.975 75.456,90.831 76.625 M66.164 78.375 C 67.125 79.360,67.931 80.167,67.955 80.167 C 68.076 80.167,67.872 79.953,66.208 78.330 L 64.417 76.583 66.164 78.375 M96.333 76.719 C 96.333 76.748,96.577 76.991,96.875 77.260 L 97.417 77.750 96.927 77.208 C 96.471 76.703,96.333 76.590,96.333 76.719 M82.415 80.375 L 79.417 83.417 82.458 80.418 C 85.284 77.633,85.575 77.333,85.457 77.333 C 85.433 77.333,84.064 78.702,82.415 80.375 M57.417 80.333 C 57.775 80.700,58.105 81.000,58.151 81.000 C 58.197 81.000,57.941 80.700,57.583 80.333 C 57.225 79.967,56.895 79.667,56.849 79.667 C 56.803 79.667,57.059 79.967,57.417 80.333 M60.833 83.750 C 62.252 85.171,63.450 86.333,63.496 86.333 C 63.542 86.333,62.419 85.171,61.000 83.750 C 59.581 82.329,58.383 81.167,58.337 81.167 C 58.292 81.167,59.415 82.329,60.833 83.750 M99.000 90.052 C 99.000 90.081,99.244 90.325,99.542 90.594 L 100.083 91.083 99.594 90.542 C 99.138 90.037,99.000 89.923,99.000 90.052 M108.074 95.083 C 108.074 97.833,108.097 98.982,108.125 97.635 C 108.153 96.289,108.153 94.039,108.125 92.635 C 108.097 91.232,108.074 92.333,108.074 95.083 M37.740 92.708 L 37.250 93.250 37.792 92.760 C 38.297 92.304,38.410 92.167,38.281 92.167 C 38.252 92.167,38.009 92.410,37.740 92.708 M35.240 95.542 L 34.750 96.083 35.292 95.594 C 35.590 95.325,35.833 95.081,35.833 95.052 C 35.833 94.923,35.696 95.037,35.240 95.542 M31.573 99.708 L 31.083 100.250 31.625 99.760 C 32.130 99.304,32.243 99.167,32.115 99.167 C 32.086 99.167,31.842 99.410,31.573 99.708 " stroke="none" fill="#6d91f4" fill-rule="evenodd"></path><path id="path4" d="M84.333 62.250 C 83.928 62.663,83.635 63.000,83.681 63.000 C 83.726 63.000,84.095 62.663,84.500 62.250 C 84.905 61.837,85.199 61.500,85.153 61.500 C 85.107 61.500,84.738 61.837,84.333 62.250 M81.380 65.201 L 79.679 66.903 79.214 66.498 L 78.750 66.093 79.210 66.586 L 79.669 67.079 81.459 65.289 C 82.443 64.305,83.211 63.500,83.165 63.500 C 83.119 63.500,82.316 64.266,81.380 65.201 M57.917 64.667 C 58.275 65.033,58.605 65.333,58.651 65.333 C 58.697 65.333,58.441 65.033,58.083 64.667 C 57.725 64.300,57.395 64.000,57.349 64.000 C 57.303 64.000,57.559 64.300,57.917 64.667 M86.662 65.958 L 85.583 67.083 86.708 66.005 C 87.327 65.412,87.833 64.905,87.833 64.880 C 87.833 64.757,87.664 64.913,86.662 65.958 M53.333 66.083 C 53.924 66.679,54.445 67.167,54.490 67.167 C 54.536 67.167,54.091 66.679,53.500 66.083 C 52.909 65.487,52.389 65.000,52.343 65.000 C 52.297 65.000,52.743 65.487,53.333 66.083 M59.707 66.415 C 60.316 67.060,60.337 67.068,60.623 66.755 C 60.904 66.449,60.904 66.445,60.618 66.660 C 60.356 66.858,60.245 66.818,59.702 66.321 L 59.083 65.756 59.707 66.415 M55.333 67.885 C 55.333 67.914,55.577 68.158,55.875 68.427 L 56.417 68.917 55.927 68.375 C 55.471 67.870,55.333 67.757,55.333 67.885 M82.573 69.708 L 82.083 70.250 82.625 69.760 C 82.923 69.491,83.167 69.248,83.167 69.219 C 83.167 69.090,83.029 69.203,82.573 69.708 M92.247 69.799 L 92.565 70.181 89.658 73.132 L 86.751 76.083 89.748 73.127 L 92.745 70.171 92.337 69.794 L 91.929 69.417 92.247 69.799 M80.164 72.125 L 78.417 73.917 80.208 72.170 C 81.872 70.547,82.076 70.333,81.955 70.333 C 81.931 70.333,81.125 71.140,80.164 72.125 M61.417 73.833 C 62.698 75.117,63.783 76.167,63.829 76.167 C 63.875 76.167,62.864 75.117,61.583 73.833 C 60.302 72.550,59.217 71.500,59.171 71.500 C 59.125 71.500,60.136 72.550,61.417 73.833 M53.417 76.333 C 55.248 78.167,56.784 79.667,56.830 79.667 C 56.876 79.667,55.415 78.167,53.583 76.333 C 51.752 74.500,50.216 73.000,50.170 73.000 C 50.124 73.000,51.585 74.500,53.417 76.333 M92.745 74.875 L 91.750 75.917 92.783 74.931 C 93.717 74.038,93.844 73.967,94.116 74.181 C 94.390 74.396,94.397 74.391,94.188 74.125 C 93.864 73.712,93.847 73.721,92.745 74.875 M77.500 74.750 C 77.095 75.162,76.801 75.500,76.847 75.500 C 76.893 75.500,77.262 75.162,77.667 74.750 C 78.072 74.337,78.365 74.000,78.319 74.000 C 78.274 74.000,77.905 74.337,77.500 74.750 M85.991 76.792 L 85.417 77.417 86.042 76.842 C 86.623 76.308,86.743 76.167,86.616 76.167 C 86.588 76.167,86.307 76.448,85.991 76.792 M64.583 77.000 C 64.941 77.367,65.272 77.667,65.318 77.667 C 65.363 77.667,65.108 77.367,64.750 77.000 C 64.392 76.633,64.062 76.333,64.016 76.333 C 63.970 76.333,64.225 76.633,64.583 77.000 M49.132 77.548 C 49.993 78.417,50.134 78.637,49.960 78.832 C 49.780 79.034,49.793 79.035,50.051 78.839 C 50.320 78.635,48.609 76.500,48.176 76.500 C 48.130 76.500,48.560 76.972,49.132 77.548 M73.573 78.542 L 73.083 79.083 73.625 78.594 C 73.923 78.325,74.167 78.081,74.167 78.052 C 74.167 77.923,74.029 78.037,73.573 78.542 M71.461 80.620 L 70.007 82.074 69.295 81.415 L 68.583 80.756 69.292 81.501 L 70.001 82.246 71.541 80.707 C 72.388 79.860,73.044 79.167,72.998 79.167 C 72.952 79.167,72.260 79.821,71.461 80.620 M77.333 85.204 C 75.112 87.384,74.733 87.794,76.250 86.375 C 78.603 84.173,80.975 81.826,80.829 81.842 C 80.785 81.847,79.212 83.360,77.333 85.204 M61.500 84.210 C 61.500 84.255,62.527 85.258,63.782 86.438 C 65.037 87.618,66.014 88.500,65.953 88.398 C 65.808 88.156,61.500 84.104,61.500 84.210 M73.907 93.333 C 73.907 95.946,73.930 97.015,73.958 95.708 C 73.986 94.402,73.986 92.265,73.958 90.958 C 73.930 89.652,73.907 90.721,73.907 93.333 M31.241 95.083 C 31.240 97.833,31.263 98.982,31.291 97.635 C 31.319 96.289,31.319 94.039,31.291 92.635 C 31.263 91.232,31.241 92.333,31.241 95.083 M104.667 96.385 C 104.667 96.414,104.910 96.658,105.208 96.927 L 105.750 97.417 105.260 96.875 C 104.804 96.370,104.667 96.257,104.667 96.385 " stroke="none" fill="#94acfc" fill-rule="evenodd"></path></g></svg>